<mxfile host="Electron" modified="2024-04-16T20:13:54.631Z" agent="Mozilla/5.0 (Windows NT 10.0; Win64; x64) AppleWebKit/537.36 (KHTML, like Gecko) draw.io/24.2.5 Chrome/120.0.6099.109 Electron/28.1.0 Safari/537.36" etag="Ipy5wF_gO87nK5Wm9qC3" version="24.2.5" type="device">
  <diagram name="Page-1" id="r7TwDWcqVQ2UmlJdpbrI">
    <mxGraphModel dx="819" dy="1605" grid="1" gridSize="10" guides="1" tooltips="1" connect="1" arrows="1" fold="1" page="1" pageScale="1" pageWidth="850" pageHeight="1100" math="0" shadow="0">
      <root>
        <mxCell id="0" />
        <mxCell id="1" parent="0" />
        <mxCell id="suh7zFXW5iT2k1xCPk8k-1" value="Input: Optimization problem description" style="ellipse;whiteSpace=wrap;html=1;" vertex="1" parent="1">
          <mxGeometry x="117.5" y="-60" width="155" height="60" as="geometry" />
        </mxCell>
        <mxCell id="suh7zFXW5iT2k1xCPk8k-2" value="Model: Generate the mathematical model by LLM" style="rounded=1;whiteSpace=wrap;html=1;fontSize=12;glass=0;strokeWidth=1;shadow=0;fillColor=#d5e8d4;strokeColor=#82b366;" vertex="1" parent="1">
          <mxGeometry x="135.75" y="30" width="118.5" height="70" as="geometry" />
        </mxCell>
        <mxCell id="suh7zFXW5iT2k1xCPk8k-3" value="" style="rounded=0;html=1;jettySize=auto;orthogonalLoop=1;fontSize=11;endArrow=block;endFill=0;endSize=8;strokeWidth=1;shadow=0;labelBackgroundColor=none;edgeStyle=orthogonalEdgeStyle;entryX=0.5;entryY=0;entryDx=0;entryDy=0;exitX=0.5;exitY=1;exitDx=0;exitDy=0;" edge="1" parent="1">
          <mxGeometry relative="1" as="geometry">
            <mxPoint x="194.93" y="100" as="sourcePoint" />
            <mxPoint x="194.93" y="130" as="targetPoint" />
          </mxGeometry>
        </mxCell>
        <mxCell id="suh7zFXW5iT2k1xCPk8k-6" value="Output: Model" style="ellipse;whiteSpace=wrap;html=1;" vertex="1" parent="1">
          <mxGeometry x="117.5" y="130" width="155" height="60" as="geometry" />
        </mxCell>
        <mxCell id="suh7zFXW5iT2k1xCPk8k-8" value="" style="rounded=0;html=1;jettySize=auto;orthogonalLoop=1;fontSize=11;endArrow=block;endFill=0;endSize=8;strokeWidth=1;shadow=0;labelBackgroundColor=none;edgeStyle=orthogonalEdgeStyle;entryX=0.5;entryY=0;entryDx=0;entryDy=0;exitX=0.5;exitY=1;exitDx=0;exitDy=0;" edge="1" parent="1">
          <mxGeometry relative="1" as="geometry">
            <mxPoint x="194.71" as="sourcePoint" />
            <mxPoint x="194.71" y="30" as="targetPoint" />
          </mxGeometry>
        </mxCell>
      </root>
    </mxGraphModel>
  </diagram>
</mxfile>
